<svg id="Shopping-Cart--Streamline-Carbon" xmlns="http://www.w3.org/2000/svg" viewBox="0 0 16 16" height="16" width="16"><desc>Shopping Cart Streamline Icon: https://streamlinehq.com</desc><defs></defs><title>shopping--cart</title><path d="M4 14a1 1 0 1 0 2 0 1 1 0 1 0 -2 0" fill="#ffb000" stroke-width="0.5"></path><path d="M11 14a1 1 0 1 0 2 0 1 1 0 1 0 -2 0" fill="#ffb000" stroke-width="0.5"></path><path d="M14 3.5H2.91L2.5 1.4A0.5 0.5 0 0 0 2 1H0v1h1.59L3.5 11.6a0.5 0.5 0 0 0 0.5 0.4h9v-1H4.41L4 9h9a0.5 0.5 0 0 0 0.5 -0.39l1 -4.5A0.5 0.5 0 0 0 14 3.5Zm-1.4 4.5H3.81l-0.7 -3.5h10.265Z" fill="#ffb000" stroke-width="0.5"></path><path id="_Transparent_Rectangle_" d="M0 0h16v16H0Z" fill="none" stroke-width="0.5"></path></svg>